<?xml version="1.0" encoding="UTF-8"?><svg id="Capa_1" xmlns="http://www.w3.org/2000/svg" viewBox="0 0 56 56"><defs><style>.cls-1{fill:#fff;}.cls-2{fill:#f7931e;}</style></defs><rect class="cls-2" x="-1.16" y="-1.16" width="58.32" height="58.32"/><path class="cls-1" d="m36.56,32.89h-17.12c-1.67,0-3.03-1.36-3.03-3.03v-10.51c0-1.67,1.36-3.03,3.03-3.03h17.12c1.67,0,3.03,1.36,3.03,3.03v10.51c0,1.67-1.36,3.03-3.03,3.03Zm-17.12-15.6c-1.14,0-2.07.93-2.07,2.07v10.51c0,1.14.93,2.07,2.07,2.07h17.12c1.14,0,2.07-.93,2.07-2.07v-10.51c0-1.14-.93-2.07-2.07-2.07h-17.12Z"/><path class="cls-1" d="m32.86,37.63h-9.72c-.15,0-.29-.07-.38-.18-.09-.12-.12-.27-.09-.41l1.16-4.74c.05-.21.24-.36.46-.36h7.4c.22,0,.41.15.46.36l1.16,4.74c.03.14,0,.29-.09.41-.09.12-.23.18-.38.18Zm-9.11-.96h8.51l-.93-3.78h-6.65l-.93,3.78Z"/><path class="cls-1" d="m35.46,37.63h-14.93c-.26,0-.48-.21-.48-.48s.21-.48.48-.48h14.93c.26,0,.48.21.48.48s-.21.48-.48.48Z"/><path class="cls-1" d="m38.23,39.67h-20.47c-.26,0-.48-.21-.48-.48s.21-.48.48-.48h20.47c.26,0,.48.21.48.48s-.21.48-.48.48Z"/><path class="cls-1" d="m39.11,30h-22.21c-.26,0-.48-.21-.48-.48s.21-.48.48-.48h22.21c.26,0,.48.21.48.48s-.21.48-.48.48Z"/><path class="cls-1" d="m26.76,30h-3.54c-.26,0-.48-.21-.48-.48v-9.92c0-.26.21-.48.48-.48h3.54c.26,0,.48.21.48.48v9.92c0,.26-.21.48-.48.48Zm-3.06-.96h2.59v-8.97h-2.59v8.97Z"/><path class="cls-1" d="m30.31,30h-3.54c-.26,0-.48-.21-.48-.48v-9.92c0-.26.21-.48.48-.48h3.54c.26,0,.48.21.48.48v9.92c0,.26-.21.48-.48.48Zm-3.06-.96h2.59v-8.97h-2.59v8.97Z"/><path class="cls-1" d="m32.83,30c-.21,0-.41-.14-.46-.36l-2.53-9.6c-.03-.12-.01-.25.05-.36.06-.11.17-.19.29-.22l3.43-.9c.26-.07.52.09.58.34l2.53,9.6c.03.12.01.25-.05.36-.06.11-.17.19-.29.22l-3.43.9s-.08.02-.12.02Zm-1.94-9.74l2.28,8.67,2.5-.66-2.28-8.67-2.5.66Z"/><path class="cls-1" d="m25.24,22.09h-.5c-.26,0-.48-.21-.48-.48s.21-.48.48-.48h.5c.26,0,.48.21.48.48s-.21.48-.48.48Z"/><path class="cls-1" d="m25.24,23.92h-.5c-.26,0-.48-.21-.48-.48s.21-.48.48-.48h.5c.26,0,.48.21.48.48s-.21.48-.48.48Z"/><path class="cls-1" d="m23.22,30h-3.54c-.26,0-.48-.21-.48-.48v-9.92c0-.26.21-.48.48-.48h3.54c.26,0,.48.21.48.48v9.92c0,.26-.21.48-.48.48Zm-3.06-.96h2.59v-8.97h-2.59v8.97Z"/><path class="cls-1" d="m21.7,22.09h-.5c-.26,0-.48-.21-.48-.48s.21-.48.48-.48h.5c.26,0,.48.21.48.48s-.21.48-.48.48Z"/><path class="cls-1" d="m21.7,23.92h-.5c-.26,0-.48-.21-.48-.48s.21-.48.48-.48h.5c.26,0,.48.21.48.48s-.21.48-.48.48Z"/><path class="cls-1" d="m28.79,23.92h-.5c-.26,0-.48-.21-.48-.48s.21-.48.48-.48h.5c.26,0,.48.21.48.48s-.21.48-.48.48Z"/><path class="cls-1" d="m32.75,23.74c-.21,0-.41-.14-.46-.36-.07-.26.09-.52.34-.58l.49-.13c.26-.07.52.09.58.34.07.26-.09.52-.34.58l-.49.13s-.08.02-.12.02Z"/><path class="cls-1" d="m28.79,22.09h-.5c-.26,0-.48-.21-.48-.48s.21-.48.48-.48h.5c.26,0,.48.21.48.48s-.21.48-.48.48Z"/><path class="cls-1" d="m32.29,21.96c-.21,0-.41-.14-.46-.36-.07-.26.09-.52.34-.58l.49-.13c.26-.07.52.09.58.34.07.26-.09.52-.34.58l-.49.13s-.08.02-.12.02Z"/></svg>