<?xml version="1.0" encoding="UTF-8"?><svg id="Capa_1" xmlns="http://www.w3.org/2000/svg" xmlns:xlink="http://www.w3.org/1999/xlink" viewBox="0 0 56 56"><defs><style>.cls-1{fill:#fff;}.cls-2{fill:#f7931e;}.cls-3,.cls-4,.cls-5{fill:none;}.cls-4{stroke:#fff;stroke-miterlimit:10;stroke-width:1.5px;}.cls-5{clip-path:url(#clippath);}</style><clipPath id="clippath"><rect class="cls-3" x="11.97" y="13.35" width="32.06" height="29.42"/></clipPath></defs><rect class="cls-2" x="-1.16" y="-1.16" width="58.32" height="58.32"/><g class="cls-5"><circle class="cls-4" cx="28" cy="22.71" r="6.48"/><circle class="cls-4" cx="28" cy="42.77" r="10.88"/></g><path class="cls-1" d="m30.14,38.94c-.23-.01-.4-.13-.48-.31l-.77-1.75c-.12-.27,0-.58.27-.7.27-.12.58,0,.7.27l.36.82,1.14-1.9c.15-.25.47-.33.72-.18.25.15.33.47.18.72l-1.66,2.78c-.1.16-.27.26-.45.26Z"/></svg>