<?xml version="1.0" encoding="UTF-8"?><svg id="Capa_1" xmlns="http://www.w3.org/2000/svg" viewBox="0 0 56 56"><defs><style>.cls-1{fill:#fff;}.cls-2{fill:#f7931e;}</style></defs><rect class="cls-2" x="-1.16" y="-1.16" width="58.32" height="58.32"/><path class="cls-1" d="m35.71,41.99h-15.41c-1.14,0-2.06-.92-2.06-2.06v-20.68c0-1.14.92-2.06,2.06-2.06h3.06c.29,0,.53.24.53.53v1.75c0,.55.45,1,1,1h6.22c.55,0,1-.45,1-1v-1.75c0-.29.24-.53.53-.53h3.06c1.14,0,2.06.92,2.06,2.06v20.68c0,1.14-.92,2.06-2.06,2.06Zm-15.41-23.74c-.55,0-1,.45-1,1v20.68c0,.55.45,1,1,1h15.41c.55,0,1-.45,1-1v-20.68c0-.55-.45-1-1-1h-2.54v1.22c0,1.14-.92,2.06-2.06,2.06h-6.22c-1.14,0-2.06-.92-2.06-2.06v-1.22h-2.54Z"/><path class="cls-1" d="m28.81,18.99h-1.61c-.71,0-1.29-.58-1.29-1.29v-2.39c0-.71.58-1.29,1.29-1.29h1.61c.71,0,1.29.58,1.29,1.29v2.39c0,.71-.58,1.29-1.29,1.29Zm-1.61-3.92c-.13,0-.24.11-.24.24v2.39c0,.13.11.24.24.24h1.61c.13,0,.24-.11.24-.24v-2.39c0-.13-.11-.24-.24-.24h-1.61Z"/><path class="cls-1" d="m31.11,21.53h-6.22c-1.14,0-2.06-.92-2.06-2.06v-1.5c0-1.14.92-2.06,2.06-2.06h1.54c.29,0,.53.24.53.53v1.26c0,.13.11.24.24.24h1.61c.13,0,.24-.11.24-.24v-1.26c0-.29.24-.53.53-.53h1.54c1.14,0,2.06.92,2.06,2.06v1.5c0,1.14-.92,2.06-2.06,2.06Zm-6.22-4.56c-.55,0-1,.45-1,1v1.5c0,.55.45,1,1,1h6.22c.55,0,1-.45,1-1v-1.5c0-.55-.45-1-1-1h-1.01v.73c0,.71-.58,1.29-1.29,1.29h-1.61c-.71,0-1.29-.58-1.29-1.29v-.73h-1.01Z"/><path class="cls-1" d="m33.56,39.33h-11.12c-.92,0-1.67-.75-1.67-1.68v-16.42c0-.92.75-1.68,1.68-1.68h.92c.29,0,.53.24.53.53s-.24.53-.53.53h-.92c-.34,0-.62.28-.62.62v16.42c0,.34.28.62.62.62h11.12c.34,0,.62-.28.62-.62v-16.42c0-.34-.28-.62-.62-.62h-.92c-.29,0-.53-.24-.53-.53s.24-.53.53-.53h.92c.92,0,1.68.75,1.68,1.68v16.42c0,.92-.75,1.68-1.68,1.68Z"/><path class="cls-1" d="m31.75,24.85h-4.27c-.29,0-.53-.24-.53-.53s.24-.53.53-.53h4.27c.29,0,.53.24.53.53s-.24.53-.53.53Z"/><path class="cls-1" d="m31.75,28.54h-4.27c-.29,0-.53-.24-.53-.53s.24-.53.53-.53h4.27c.29,0,.53.24.53.53s-.24.53-.53.53Z"/><path class="cls-1" d="m31.75,32.23h-4.27c-.29,0-.53-.24-.53-.53s.24-.53.53-.53h4.27c.29,0,.53.24.53.53s-.24.53-.53.53Z"/><path class="cls-1" d="m31.75,35.92h-4.27c-.29,0-.53-.24-.53-.53s.24-.53.53-.53h4.27c.29,0,.53.24.53.53s-.24.53-.53.53Z"/><path class="cls-1" d="m24.5,26.23c-.23-.01-.4-.13-.48-.31l-.77-1.75c-.12-.27,0-.58.27-.7.27-.12.58,0,.7.27l.36.82,1.14-1.9c.15-.25.47-.33.72-.18.25.15.33.47.18.72l-1.66,2.78c-.1.16-.27.26-.45.26Z"/><path class="cls-1" d="m24.5,29.92c-.23-.01-.4-.13-.48-.31l-.77-1.75c-.12-.27,0-.58.27-.7.27-.12.58,0,.7.27l.36.82,1.14-1.9c.15-.25.47-.33.72-.18.25.15.33.47.18.72l-1.66,2.78c-.1.16-.27.26-.45.26Z"/><path class="cls-1" d="m24.5,33.61c-.23-.01-.4-.13-.48-.31l-.77-1.75c-.12-.27,0-.58.27-.7.27-.12.58,0,.7.27l.36.82,1.14-1.9c.15-.25.47-.33.72-.18.25.15.33.47.18.72l-1.66,2.78c-.1.16-.27.26-.45.26Z"/><path class="cls-1" d="m24.5,37.31c-.23-.01-.4-.13-.48-.31l-.77-1.75c-.12-.27,0-.58.27-.7.27-.12.58,0,.7.27l.36.82,1.14-1.9c.15-.25.47-.33.72-.18.25.15.33.47.18.72l-1.66,2.78c-.1.16-.27.26-.45.26Z"/></svg>