<?xml version="1.0" encoding="UTF-8"?><svg id="Capa_1" xmlns="http://www.w3.org/2000/svg" viewBox="0 0 56 56"><defs><style>.cls-1{fill:#fff;}.cls-2{fill:#f7931e;}</style></defs><rect class="cls-2" x="-1.16" y="-1.16" width="58.32" height="58.32"/><path class="cls-1" d="m43.01,40.48H12.99c-.34,0-.61-.27-.61-.61v-19.67c0-.34.27-.61.61-.61h2.18c.34,0,.61.27.61.61s-.27.61-.61.61h-1.57v18.45h28.81v-18.45h-1.98c-.34,0-.61-.27-.61-.61s.27-.61.61-.61h2.58c.34,0,.61.27.61.61v19.67c0,.34-.27.61-.61.61Z"/><path class="cls-1" d="m27.99,40.48c-.23,0-.44-.13-.54-.34l-.63-1.26c-.38-.77-1.15-1.24-2-1.24-.34,0-.61-.27-.61-.61s.27-.61.61-.61c1.32,0,2.5.73,3.09,1.91l.08.17.08-.17c.59-1.18,1.77-1.91,3.09-1.91.34,0,.61.27.61.61s-.27.61-.61.61c-.85,0-1.62.48-2,1.24l-.63,1.26c-.1.21-.31.34-.54.34Z"/><path class="cls-1" d="m27.99,22.03c-.22,0-.44-.12-.54-.34l-.63-1.26c-.38-.76-1.15-1.24-2-1.24-.34,0-.61-.27-.61-.61s.27-.61.6-.61c1.32,0,2.5.73,3.09,1.91l.63,1.26c.15.3.03.66-.27.81-.09.04-.18.06-.27.06Z"/><path class="cls-1" d="m24.82,37.64h-9.65c-.34,0-.61-.27-.61-.61v-18.44c0-.34.27-.61.61-.61h9.65c.34,0,.61.27.61.61s-.27.61-.61.61h-9.04v17.23h9.04c.34,0,.61.27.61.61s-.27.61-.61.61Z"/><path class="cls-1" d="m40.44,37.64h-9.17c-.34,0-.61-.27-.61-.61s.27-.61.61-.61h8.57v-17.23h-2.12c-.34,0-.61-.27-.61-.61s.27-.61.61-.61h2.73c.34,0,.61.27.61.61v18.44c0,.34-.27.61-.61.61Z"/><path class="cls-1" d="m27.99,40.48c-.34,0-.61-.27-.61-.61v-19.93c0-2.44,1.98-4.42,4.42-4.42h5.91c.34,0,.61.27.61.61v18.82c0,.34-.27.61-.61.61h-5.91c-1.84,0-3.21,1.91-3.21,3.61v.71c0,.34-.27.61-.61.61Zm3.82-23.75c-1.77,0-3.21,1.44-3.21,3.21v15.97c.82-.96,1.98-1.58,3.21-1.58h5.3v-17.6h-5.3Z"/></svg>